<svg width="67" height="67" viewBox="0 0 67 67" fill="none" xmlns="http://www.w3.org/2000/svg">
<mask id="mask0_58_94" style="mask-type:alpha" maskUnits="userSpaceOnUse" x="0" y="0" width="67" height="67">
<path d="M67 33.5C67 52.0015 52.0015 67 33.5 67C14.9985 67 0 52.0015 0 33.5C0 14.9985 14.9985 0 33.5 0C52.0015 0 67 14.9985 67 33.5Z" fill="#D9D9D9"/>
</mask>
<g mask="url(#mask0_58_94)">
<path d="M-27.5 22.3242C26.7494 51.7621 1.43688 -30.5084 51.3288 -10.4047" stroke="#264CAF"/>
<path d="M-24.5 27.3235C29.7494 56.7614 4.43688 -25.5091 54.3288 -5.40544" stroke="#264CAF"/>
<path d="M-20.5 32.3235C33.7494 61.7614 8.43688 -20.5091 58.3288 -0.405444" stroke="#264CAF"/>
<path d="M-16.5 36.3242C37.7494 65.7621 12.4369 -16.5084 62.3288 3.59529" stroke="#264CAF"/>
<path d="M-12.5 40.3242C41.7494 69.7621 16.4369 -12.5084 66.3288 7.59529" stroke="#264CAF"/>
<path d="M-8.5 44.3242C45.7494 73.7621 20.4369 -8.50842 70.3288 11.5953" stroke="#264CAF"/>
<path d="M-4.5 48.3242C49.7494 77.7621 24.4369 -4.50842 74.3288 15.5953" stroke="#DBA20C"/>
<path d="M-0.5 52.3242C53.7494 81.7621 28.4369 -0.508416 78.3288 19.5953" stroke="#DBA20C"/>
<path d="M3.5 56.3242C57.7494 85.7621 32.4369 3.49158 82.3288 23.5953" stroke="#DBA20C"/>
<path d="M7.5 60.3242C61.7494 89.7621 36.4369 7.49158 86.3288 27.5953" stroke="#DBA20C"/>
<path d="M11.5 64.3242C65.7494 93.7621 40.4369 11.4916 90.3288 31.5953" stroke="#DBA20C"/>
<path d="M15.5 68.3242C69.7494 97.7621 44.4369 15.4916 94.3288 35.5953" stroke="#DBA20C"/>
</g>
</svg>
